<svg version="1.0" xmlns="http://www.w3.org/2000/svg"
 width="1280.000000pt" height="1280.000000pt" viewBox="0 0 1280.000000 1280.000000"
 preserveAspectRatio="xMidYMid meet">

<g transform="translate(0.000000,1280.000000) scale(0.100000,-0.100000)"
fill="#000000" stroke="none">
<path d="M6195 12565 c-33 -7 -96 -27 -140 -45 -44 -18 -136 -52 -205 -76 -69
-25 -168 -69 -220 -98 -52 -29 -149 -83 -216 -120 -160 -90 -326 -225 -431
-350 -94 -112 -183 -276 -251 -463 -71 -193 -156 -548 -181 -758 -5 -44 -17
-123 -25 -175 -32 -192 -59 -347 -72 -420 -82 -439 -162 -1324 -157 -1750 0
-85 7 -238 13 -340 14 -207 6 -299 -30 -350 -64 -89 -362 -259 -810 -463 -273
-123 -529 -256 -635 -328 -209 -142 -440 -361 -536 -507 -58 -88 -166 -298
-207 -402 -91 -231 -295 -1098 -348 -1478 -8 -64 -20 -139 -25 -167 -14 -71
-55 -461 -70 -650 -16 -216 -17 -883 -1 -1189 6 -137 17 -348 22 -470 19 -430
50 -656 124 -918 20 -68 42 -163 51 -213 50 -279 150 -566 267 -768 34 -59 42
-67 68 -67 17 0 30 3 30 6 0 3 -13 24 -29 47 -114 166 -217 452 -290 807 -17
80 -44 195 -60 256 -73 268 -88 408 -121 1099 -6 121 -15 310 -22 419 -12 215
-6 742 13 1021 6 88 21 237 34 330 13 94 26 195 29 225 6 65 45 309 87 545 56
311 228 995 291 1155 33 83 142 296 193 375 87 137 306 347 503 485 124 86
349 204 652 340 262 119 596 289 673 344 36 26 89 68 118 94 33 29 54 42 57
34 2 -7 33 -52 68 -100 125 -169 335 -386 474 -489 128 -94 593 -333 649 -333
7 0 10 -8 7 -17 -47 -163 -46 -238 11 -423 36 -120 38 -131 38 -265 -1 -194
-5 -201 -123 -244 -120 -43 -345 -155 -457 -229 -317 -207 -573 -497 -744
-843 -70 -141 -150 -363 -174 -484 l-14 -70 -161 -5 c-165 -5 -187 -11 -180
-46 3 -17 17 -19 166 -22 l162 -2 -7 -58 c-15 -112 -8 -510 10 -612 82 -452
269 -824 572 -1138 324 -337 711 -544 1184 -634 100 -20 150 -22 366 -22 196
0 271 4 345 17 386 72 711 217 1000 447 97 77 283 266 351 355 239 313 390
682 439 1070 17 130 14 409 -5 544 -9 62 -14 116 -11 119 3 3 78 8 167 11 136
5 164 9 172 23 8 12 7 21 -3 33 -13 15 -32 16 -186 10 l-173 -7 -11 43 c-53
210 -175 485 -298 669 -248 374 -619 666 -1047 825 -55 20 -102 39 -104 41 -2
2 13 40 33 84 106 233 153 475 126 653 -6 43 -24 118 -39 166 l-28 89 165 103
c195 122 348 232 452 325 41 36 143 124 225 194 83 71 176 155 208 188 l59 59
56 -27 c212 -102 454 -177 697 -214 313 -49 605 -126 747 -197 132 -66 296
-199 391 -318 117 -147 246 -357 352 -574 116 -238 136 -292 230 -631 58 -208
72 -278 112 -545 l45 -306 8 -455 c4 -250 14 -520 21 -600 10 -114 10 -209 1
-445 -11 -299 -11 -336 19 -832 15 -251 4 -492 -37 -796 -36 -278 -75 -420
-192 -707 -30 -74 -74 -188 -97 -253 -51 -139 -125 -281 -274 -527 l-110 -180
30 0 c25 0 35 9 76 72 88 138 258 444 285 513 15 39 43 111 62 160 19 50 63
164 99 255 88 223 134 386 158 560 11 80 24 152 29 162 5 9 14 94 21 190 12
184 8 494 -12 773 -7 105 -9 298 -4 560 5 325 3 444 -11 635 -11 167 -14 289
-10 422 9 249 -6 450 -59 818 -40 281 -50 325 -119 570 -92 328 -115 390 -225
615 -274 562 -558 857 -946 983 -118 39 -378 97 -546 122 -165 25 -301 57
-441 104 -137 46 -288 115 -288 132 0 7 7 46 15 86 56 261 99 679 99 963 1
246 -18 686 -34 773 -5 29 -14 108 -21 175 -11 114 -37 222 -84 347 -23 59
-16 209 21 450 46 305 26 498 -73 700 -41 86 -59 108 -178 230 -133 136 -165
176 -257 317 -58 89 -182 243 -259 323 -75 77 -198 178 -396 328 -196 146
-293 205 -378 227 -73 19 -265 19 -350 0z m340 -50 c73 -19 162 -72 320 -189
296 -221 444 -354 553 -499 109 -145 168 -232 152 -222 -8 4 -33 21 -55 35
-22 15 -125 78 -230 140 -104 62 -229 137 -276 166 -105 66 -296 154 -438 201
-252 83 -457 108 -646 79 -152 -24 -440 -91 -557 -130 -54 -18 -98 -32 -98
-30 0 8 126 87 230 144 241 132 280 151 401 194 68 24 153 56 189 71 36 14 92
32 125 40 84 19 257 19 330 0z m1103 -1219 c33 -17 110 -98 139 -146 33 -55
51 -124 72 -275 48 -331 51 -453 21 -750 -36 -354 -68 -487 -193 -796 -74
-185 -126 -331 -190 -535 -75 -240 -193 -456 -362 -664 -214 -265 -285 -328
-437 -392 -64 -27 -249 -60 -262 -47 -3 3 1 23 8 44 18 51 37 303 29 377 -7
68 12 204 38 273 10 27 19 51 19 53 0 1 -67 2 -150 2 -165 0 -159 3 -134 -65
8 -22 21 -114 29 -205 7 -91 16 -172 19 -180 3 -8 10 -73 16 -143 6 -70 14
-135 17 -144 5 -13 -1 -14 -38 -8 -227 35 -375 130 -483 310 -27 44 -79 118
-116 165 -37 47 -130 180 -207 295 -333 496 -472 900 -488 1420 -5 178 -24
406 -45 555 -20 145 -33 467 -21 545 29 200 125 285 320 285 74 0 240 -9 571
-31 196 -13 898 -12 1057 1 62 6 177 21 255 35 193 33 184 32 346 34 106 1
150 -3 170 -13z m-3058 -1020 c7 -21 27 -69 45 -105 18 -36 60 -160 94 -276
115 -387 153 -498 236 -685 95 -213 212 -503 245 -605 48 -147 159 -412 247
-588 108 -217 182 -386 243 -557 63 -177 136 -361 192 -480 66 -141 203 -307
318 -383 66 -44 82 -48 38 -8 -18 16 -31 31 -28 34 3 2 50 30 105 62 250 145
449 296 613 465 62 64 154 222 264 460 174 372 258 585 354 904 165 544 197
652 225 766 17 69 51 172 74 230 80 196 165 384 179 398 13 13 17 8 31 -39 34
-115 74 -431 86 -689 27 -560 22 -711 -41 -1163 -34 -238 -40 -264 -80 -346
-31 -62 -63 -91 -313 -285 -48 -37 -156 -125 -240 -194 -142 -119 -207 -168
-462 -349 -99 -71 -128 -84 -87 -40 36 39 24 97 -20 97 -36 0 -94 -31 -115
-63 -28 -41 -29 -67 -3 -90 28 -24 25 -42 -12 -67 -18 -12 -25 -19 -15 -16 65
21 62 23 88 -61 21 -68 24 -97 24 -233 0 -182 -15 -253 -97 -442 -71 -167 -53
-155 -189 -130 -259 49 -538 49 -788 1 -57 -11 -105 -19 -106 -17 -2 2 1 28 7
58 16 86 2 258 -32 400 -24 99 -30 146 -29 225 1 108 10 161 25 158 5 -1 46
-9 91 -18 123 -25 132 -14 16 20 -65 19 -103 35 -103 43 0 8 17 75 37 150 31
111 43 141 65 160 45 38 34 115 -22 159 -27 22 -87 16 -113 -12 l-23 -25 -26
27 c-60 65 -479 598 -573 728 -140 195 -148 205 -152 201 -5 -5 90 -195 124
-249 14 -22 50 -83 80 -136 31 -53 77 -127 104 -166 67 -99 309 -342 387 -389
34 -20 62 -44 62 -52 0 -8 7 -28 15 -44 13 -26 13 -34 -9 -92 -13 -35 -31 -95
-40 -133 -9 -39 -21 -77 -26 -85 -7 -11 -36 -1 -153 57 -146 72 -409 226 -502
294 -124 90 -340 301 -482 470 -72 85 -73 87 -61 120 16 45 16 231 0 519 -10
176 -11 260 -3 335 6 55 15 195 21 310 10 225 42 604 65 775 24 181 55 382 69
460 8 41 22 121 32 178 9 56 21 99 25 95 3 -5 12 -26 19 -47z m1466 -4642
c-18 -71 -64 -246 -101 -389 -221 -849 -294 -1128 -297 -1130 -2 -1 -183 -6
-403 -9 -220 -4 -557 -11 -750 -16 -192 -4 -351 -7 -352 -6 -2 1 10 54 26 117
133 522 468 977 931 1262 84 51 274 144 363 176 54 20 58 20 53 4 -78 -252
-98 -328 -103 -395 -5 -70 -8 -78 -36 -98 l-30 -23 6 -105 c6 -130 10 -134
117 -130 l75 3 3 118 c3 114 2 117 -19 117 -20 0 -21 3 -14 58 13 112 45 235
97 373 59 159 42 145 213 175 74 13 244 32 252 29 1 -1 -13 -59 -31 -131z
m316 126 c124 -12 280 -38 290 -48 4 -4 -19 -59 -50 -122 -126 -251 -171 -557
-117 -804 8 -38 13 -71 12 -72 -2 -2 -248 769 -323 1014 l-13 42 47 0 c26 0
95 -5 154 -10z m558 -127 c602 -223 1075 -731 1260 -1355 17 -55 29 -103 27
-104 -3 -3 -1266 -34 -1375 -34 -25 0 -43 2 -40 6 3 3 -6 51 -21 107 -27 101
-27 102 -57 101 l-30 -1 -54 256 c-49 232 -54 270 -58 411 -3 141 -1 164 22
253 29 113 55 173 133 310 48 85 58 97 77 91 11 -3 64 -22 116 -41z m-320
-1489 c0 -6 -6 -11 -12 -11 -7 0 -205 -3 -440 -8 l-426 -7 44 168 c24 93 114
440 201 772 l157 602 238 -752 c130 -414 238 -758 238 -764z m1639 -115 c50
-303 31 -625 -55 -921 -97 -336 -280 -644 -529 -893 -112 -112 -284 -251 -296
-237 -3 4 -58 174 -122 377 -64 204 -211 671 -327 1039 -116 368 -209 670
-207 672 3 3 1041 28 1358 32 l166 3 12 -72z m-1374 -716 c399 -1268 436
-1385 433 -1388 -18 -15 -203 -112 -273 -143 -272 -118 -536 -173 -840 -173
-336 0 -627 67 -923 214 -92 45 -121 64 -118 76 3 9 90 345 195 746 104 402
229 882 277 1068 l88 337 131 1 c118 2 600 13 735 17 l56 2 239 -757z m-1235
730 c0 -5 -43 -172 -95 -373 -52 -201 -172 -660 -265 -1020 -94 -360 -175
-672 -181 -692 l-10 -38 -76 53 c-362 249 -650 632 -786 1044 -84 252 -110
411 -109 668 0 166 12 308 27 324 4 3 331 13 728 22 397 9 732 17 745 17 12 1
22 -1 22 -5z"/>
<path d="M7191 10790 c-161 -23 -317 -93 -429 -196 -40 -36 -72 -70 -72 -75 0
-5 33 17 73 50 157 129 389 204 639 205 79 1 111 4 100 10 -23 13 -231 17
-311 6z"/>
<path d="M5267 10781 c-60 -13 -51 -16 46 -18 161 -3 357 -47 502 -112 33 -15
96 -56 139 -91 61 -48 74 -56 58 -32 -73 102 -250 201 -423 235 -91 18 -270
28 -322 18z"/>
<path d="M7124 10660 c-182 -53 -376 -142 -480 -220 -52 -39 -114 -120 -114
-150 0 -23 20 -40 48 -40 15 0 87 43 181 108 86 59 172 118 193 130 61 37 243
110 308 123 69 13 202 7 244 -12 14 -7 29 -9 33 -5 13 13 -13 41 -61 65 -40
20 -67 25 -150 28 -88 3 -114 -1 -202 -27z"/>
<path d="M5360 10674 c-91 -14 -132 -28 -161 -55 -41 -38 -28 -53 26 -34 51
18 205 19 270 1 69 -18 221 -82 275 -116 25 -15 115 -75 199 -134 156 -107
194 -123 221 -91 22 26 -6 79 -78 147 -53 49 -97 77 -202 130 -229 113 -431
169 -550 152z"/>
<path d="M6954 10215 c-34 -7 -81 -23 -105 -34 -24 -11 -35 -18 -23 -16 78 19
187 35 280 42 90 6 102 8 69 14 -60 12 -153 9 -221 -6z"/>
<path d="M5685 10211 c-36 -6 -31 -7 40 -13 72 -7 154 -24 210 -44 15 -5 17
-4 9 5 -31 34 -184 65 -259 52z"/>
<path d="M5551 10154 c-30 -8 -89 -30 -132 -49 -90 -41 -93 -41 -142 -15 -46
25 -49 17 -4 -10 44 -28 85 -25 158 10 93 43 196 64 286 56 126 -10 305 -79
361 -139 31 -33 16 -72 -35 -94 -34 -14 -61 -15 -256 -4 -120 7 -238 18 -262
26 -24 7 -46 11 -49 8 -2 -2 -38 5 -78 16 -124 35 -131 22 -8 -15 123 -37 343
-64 540 -66 102 -1 136 8 169 43 34 37 28 81 -16 120 -115 100 -374 156 -532
113z"/>
<path d="M6930 10151 c-156 -40 -280 -115 -280 -170 0 -52 41 -88 115 -102 43
-8 393 15 485 31 74 14 251 69 222 69 -12 1 -55 -8 -94 -19 -39 -11 -73 -18
-75 -16 -4 4 53 48 87 66 15 9 59 14 113 15 64 0 81 2 65 9 -13 6 -25 11 -27
13 -3 2 6 15 20 29 l24 26 -38 -25 c-20 -14 -56 -28 -80 -32 -50 -9 -102 -34
-146 -71 -48 -40 -103 -51 -315 -64 -214 -14 -272 -9 -305 21 -46 43 -20 85
84 137 195 97 379 104 554 22 98 -46 166 -35 203 33 8 15 1 12 -21 -11 -45
-45 -73 -49 -135 -22 -140 62 -180 73 -281 76 -75 3 -119 -1 -175 -15z"/>
<path d="M5583 10111 c-60 -11 -122 -41 -129 -64 -8 -27 36 -62 101 -81 50
-15 458 -39 495 -29 54 14 12 76 -79 117 -106 47 -290 75 -388 57z"/>
<path d="M6972 10104 c-118 -21 -203 -54 -249 -97 -28 -25 -30 -63 -4 -70 38
-9 445 14 496 29 147 42 131 118 -31 144 -75 12 -120 11 -212 -6z"/>
<path d="M5230 10055 c0 -7 -6 -15 -12 -18 -7 -2 21 -6 63 -9 42 -4 91 -14
108 -22 17 -9 31 -14 31 -11 0 8 -78 45 -97 45 -10 1 -35 7 -55 14 -31 11 -38
11 -38 1z"/>
<path d="M6563 9970 c0 -25 2 -35 4 -22 2 12 2 32 0 45 -2 12 -4 2 -4 -23z"/>
<path d="M5430 9986 c0 -2 8 -10 18 -17 15 -13 16 -12 3 4 -13 16 -21 21 -21
13z"/>
<path d="M6451 9894 c0 -11 3 -14 6 -6 3 7 2 16 -1 19 -3 4 -6 -2 -5 -13z"/>
<path d="M6900 9811 c-60 -6 -62 -7 -30 -14 41 -9 258 2 280 14 17 9 -145 9
-250 0z"/>
<path d="M5620 9790 c33 -11 234 -11 285 -1 27 6 -17 9 -135 9 -102 0 -165 -3
-150 -8z"/>
<path d="M6552 9625 c0 -68 2 -81 8 -51 4 22 4 62 0 90 -7 45 -8 39 -8 -39z"/>
<path d="M5945 9422 c-16 -11 -36 -27 -44 -36 -23 -27 -114 -70 -241 -112
-110 -36 -121 -38 -247 -38 -119 0 -131 -2 -118 -16 8 -8 30 -65 50 -125 54
-167 148 -348 287 -553 67 -101 155 -232 193 -291 39 -60 76 -117 82 -127 11
-16 11 -15 3 7 -19 57 -95 198 -174 323 -46 72 -108 174 -138 226 -94 160
-226 435 -215 447 3 2 21 -26 41 -63 56 -102 144 -232 169 -249 47 -33 253
-81 452 -106 l80 -10 50 53 c28 30 81 88 118 131 38 42 75 77 82 77 7 0 44
-34 82 -77 37 -42 91 -100 118 -130 l50 -54 80 10 c212 27 404 69 445 99 31
23 129 163 177 255 20 37 38 66 40 64 7 -7 -35 -105 -106 -246 -65 -129 -122
-228 -274 -472 -67 -109 -139 -245 -152 -289 -4 -14 21 21 56 77 35 57 129
198 208 315 158 234 247 405 307 583 20 61 43 118 51 127 15 16 9 17 -98 12
-101 -5 -125 -3 -211 19 -135 35 -262 89 -308 131 -58 52 -94 67 -43 18 52
-52 60 -84 34 -151 -14 -37 -15 -49 -6 -41 8 6 22 33 31 58 10 26 19 48 20 50
1 2 29 -10 62 -27 84 -42 191 -71 294 -78 l87 -6 -16 -31 c-30 -59 -141 -221
-170 -247 -35 -33 -68 -44 -210 -68 -158 -27 -169 -23 -269 85 l-81 88 -85
-14 c-80 -12 -170 -10 -272 6 -40 7 -40 6 -120 -80 -97 -104 -113 -110 -243
-89 -131 21 -205 42 -232 66 -38 36 -181 250 -181 273 0 7 30 13 78 17 86 7
223 46 291 83 54 30 61 30 61 2 0 -19 45 -108 55 -108 2 0 -5 19 -15 43 -11
23 -20 60 -20 81 0 34 6 46 45 83 25 24 44 43 43 43 -2 0 -16 -8 -33 -18z"/>
<path d="M6022 9134 c4 -23 102 -78 124 -70 12 4 13 10 4 26 -15 28 -51 50
-95 57 -33 5 -37 4 -33 -13z"/>
<path d="M6628 9109 c-65 -68 -17 -77 55 -11 15 14 27 32 27 39 0 27 -44 12
-82 -28z"/>
<path d="M6285 9036 c33 -17 89 -19 120 -6 14 6 0 9 -47 9 -36 1 -75 3 -85 6
-10 3 -4 -1 12 -9z"/>
<path d="M6080 8648 c34 -14 443 -15 500 -1 36 9 -13 11 -240 11 -204 1 -278
-2 -260 -10z"/>
<path d="M6228 8533 c7 -3 16 -2 19 1 4 3 -2 6 -13 5 -11 0 -14 -3 -6 -6z"/>
<path d="M6458 8533 c18 -2 45 -2 60 0 15 2 0 4 -33 4 -33 0 -45 -2 -27 -4z"/>
<path d="M6368 8523 c12 -2 30 -2 40 0 9 3 -1 5 -23 4 -22 0 -30 -2 -17 -4z"/>
<path d="M4570 9214 c0 -140 18 -250 60 -363 52 -143 198 -418 311 -589 120
-179 210 -304 217 -298 2 2 -22 43 -52 90 -231 358 -496 968 -513 1179 -10
122 -22 111 -23 -19z"/>
<path d="M8022 9163 c-6 -15 -41 -129 -77 -253 -65 -220 -143 -447 -172 -503
-26 -51 -8 -38 37 26 61 86 125 234 149 341 31 142 81 409 77 413 -2 2 -8 -9
-14 -24z"/>
<path d="M7862 8202 c-28 -48 -66 -116 -83 -152 -58 -117 -244 -381 -359 -510
-145 -163 -180 -206 -154 -192 10 6 37 29 59 52 22 23 70 63 106 90 58 44 179
174 250 270 37 50 102 172 144 269 41 96 97 252 92 257 -2 2 -26 -36 -55 -84z"/>
<path d="M4410 8053 c0 -12 16 -59 36 -105 94 -220 219 -388 365 -490 34 -24
71 -50 83 -58 11 -8 -26 37 -83 100 -142 156 -278 341 -345 469 -32 61 -56 97
-56 84z"/>
<path d="M8745 7094 c-230 -49 -595 -220 -802 -377 -62 -46 -69 -58 -15 -27
269 160 560 301 732 356 179 56 196 62 175 62 -11 0 -51 -6 -90 -14z"/>
<path d="M4575 7010 c5 -8 43 -50 86 -94 42 -45 110 -120 149 -168 39 -49 73
-88 76 -88 7 0 -45 80 -93 143 -24 31 -72 85 -106 118 -65 64 -127 113 -112
89z"/>
<path d="M9283 6929 c-50 -10 -131 -33 -180 -50 -91 -32 -253 -104 -253 -113
0 -2 37 9 83 26 140 52 366 118 461 134 50 9 93 18 95 20 12 11 -125 0 -206
-17z"/>
<path d="M4035 6865 c140 -79 229 -142 266 -188 41 -52 51 -52 20 -2 -40 66
-112 121 -240 185 -97 49 -129 52 -46 5z"/>
<path d="M3251 6816 c5 -5 194 -66 417 -136 73 -22 171 -61 219 -85 59 -31 80
-38 67 -23 -31 33 -231 125 -344 157 -118 34 -340 91 -354 91 -5 0 -7 -2 -5
-4z"/>
<path d="M8703 6217 c-151 -161 -409 -674 -534 -1062 -17 -53 -28 -99 -25
-102 6 -7 241 469 388 787 83 177 175 355 201 388 22 28 -1 20 -30 -11z"/>
<path d="M9134 5958 c15 -269 47 -400 150 -629 57 -125 156 -312 163 -305 2 2
-30 87 -71 189 -139 344 -176 473 -212 738 -10 71 -22 129 -27 129 -6 0 -7
-48 -3 -122z"/>
<path d="M2417 5750 c-2 -52 -9 -138 -15 -190 -41 -362 -34 -1076 14 -1410 51
-355 161 -704 330 -1045 102 -206 161 -311 170 -303 2 3 -19 56 -47 119 -95
216 -213 584 -262 824 -34 164 -43 224 -77 570 -29 287 -36 396 -60 980 -19
451 -42 655 -53 455z"/>
<path d="M3678 5758 c75 -111 105 -170 175 -338 71 -171 151 -339 169 -355 8
-7 9 -6 6 5 -3 8 -31 96 -63 195 -64 202 -104 295 -163 381 -46 68 -149 184
-163 184 -5 0 12 -33 39 -72z"/>
<path d="M10044 5793 c27 -88 60 -322 78 -549 9 -118 8 -167 -6 -297 -20 -188
-39 -559 -31 -607 3 -19 1 -100 -4 -180 -17 -254 15 -174 39 100 50 560 60
880 35 1100 -17 151 -57 337 -89 413 -16 37 -32 52 -22 20z"/>
<path d="M3168 5554 c-93 -279 -168 -517 -199 -637 -43 -166 -176 -741 -190
-821 -33 -194 27 -542 127 -739 57 -110 340 -527 359 -527 5 0 -9 35 -75 190
-68 158 -174 450 -195 535 -25 101 -31 228 -23 500 9 302 18 400 68 708 46
284 82 470 146 745 25 106 44 198 42 203 -2 6 -29 -65 -60 -157z"/>
<path d="M9626 5585 c3 -27 17 -122 30 -210 14 -88 30 -196 36 -240 9 -56 12
-281 11 -741 -2 -729 2 -672 -74 -1041 -36 -176 -74 -294 -125 -396 -34 -68
-126 -217 -134 -217 -4 0 -13 21 -19 46 -20 77 -23 43 -7 -72 28 -201 39 -393
32 -573 -6 -169 -8 -182 -66 -415 -59 -242 -106 -380 -198 -583 -27 -59 -62
-146 -77 -193 -15 -47 -31 -88 -34 -93 -12 -13 -39 254 -91 903 -17 206 -46
546 -65 755 -19 209 -38 435 -41 503 -4 67 -11 122 -16 122 -45 0 47 -1610
123 -2135 29 -201 73 -421 114 -563 39 -138 107 -316 131 -347 l16 -20 -5 20
c-4 11 -23 74 -44 140 -34 112 -37 129 -37 245 0 141 14 210 90 445 24 77 61
206 81 288 20 81 37 146 39 145 9 -10 47 -330 59 -507 15 -213 64 -563 107
-753 l21 -98 35 0 34 0 -7 63 c-3 34 -15 120 -25 192 -33 223 -51 420 -53 568
l-2 142 153 440 c84 242 169 490 187 552 19 61 48 145 64 185 16 41 34 94 41
118 6 25 36 110 65 190 29 80 83 245 120 368 62 208 170 515 250 712 38 93 47
130 71 295 21 143 29 265 18 265 -5 0 -24 -51 -42 -113 -19 -61 -65 -182 -104
-267 -95 -212 -151 -360 -251 -671 -149 -462 -186 -584 -302 -1019 -63 -234
-135 -500 -160 -590 -26 -91 -62 -228 -81 -304 -18 -77 -36 -141 -39 -144 -3
-3 -5 19 -5 49 0 30 -9 110 -20 179 -21 136 -25 281 -10 374 34 208 52 397 47
486 -11 165 -36 397 -48 427 -6 15 -19 70 -29 122 l-18 94 46 56 c132 162 206
316 262 544 100 412 101 423 90 1132 -9 634 -10 641 -85 955 -49 209 -67 264
-59 185z"/>
<path d="M2042 4978 c-25 -80 -90 -471 -102 -615 -15 -186 11 -425 85 -768 49
-227 98 -396 159 -548 62 -154 201 -435 276 -557 29 -47 73 -121 98 -165 54
-96 102 -168 109 -162 2 3 -14 40 -35 84 -81 160 -270 644 -357 913 -198 615
-284 1290 -225 1759 12 90 8 113 -8 59z"/>
<path d="M9113 3858 c24 -29 56 -73 70 -98 29 -51 71 -188 82 -268 10 -73 27
-55 20 21 -17 169 -46 238 -138 334 -73 76 -96 83 -34 11z"/>
<path d="M10460 3423 c0 -197 -5 -439 -10 -538 -24 -422 -105 -952 -200 -1308
-51 -189 -66 -232 -145 -407 -69 -153 -163 -368 -185 -422 -32 -78 -5 -55 46
40 26 48 68 119 94 157 26 39 58 93 72 120 13 28 46 89 71 136 128 235 269
733 296 1047 18 199 23 599 12 897 -12 345 -32 635 -43 635 -4 0 -8 -161 -8
-357z"/>
<path d="M3561 3125 c-1 -33 74 -322 107 -410 46 -123 75 -184 143 -302 98
-170 176 -270 449 -573 169 -188 227 -246 234 -239 10 10 -209 299 -460 609
-176 217 -288 424 -386 715 -48 142 -86 229 -87 200z"/>
<path d="M3318 2813 c-37 -140 -51 -184 -90 -273 -22 -52 -55 -133 -73 -181
-18 -47 -53 -130 -78 -185 -92 -200 -134 -404 -146 -702 -4 -108 -6 -219 -4
-247 8 -105 46 -397 73 -565 56 -333 62 -366 97 -512 l36 -148 33 0 c19 0 34
4 34 9 0 10 -73 462 -120 742 -44 265 -53 383 -47 643 4 183 10 263 30 387 36
216 81 399 123 494 63 142 85 206 115 338 29 123 48 257 37 257 -3 0 -12 -26
-20 -57z"/>
<path d="M8367 2235 c-181 -168 -286 -283 -669 -727 -166 -194 -376 -427 -465
-517 -90 -90 -163 -168 -163 -173 0 -12 10 -10 27 8 9 9 59 48 112 87 174 131
452 414 710 726 148 179 330 397 484 580 92 109 124 151 113 151 -2 0 -69 -61
-149 -135z"/>
<path d="M1900 1911 c0 -23 76 -176 120 -242 66 -98 158 -204 266 -309 115
-111 194 -173 297 -234 169 -100 179 -95 24 15 -69 49 -162 133 -288 258 -209
210 -273 285 -359 426 -33 55 -60 93 -60 86z"/>
<path d="M3540 1495 c0 -41 40 -213 71 -301 182 -530 389 -803 839 -1110 l124
-84 89 0 89 0 -51 38 c-166 125 -570 525 -724 717 -105 130 -154 213 -311 518
-105 202 -126 240 -126 222z"/>
<path d="M8540 852 c-208 -196 -294 -268 -500 -416 -283 -204 -423 -311 -480
-365 -30 -29 -44 -47 -30 -39 14 8 45 26 70 41 25 14 74 37 110 50 96 36 215
98 327 170 54 35 129 83 166 107 85 54 166 134 271 270 90 116 240 330 234
335 -1 2 -77 -67 -168 -153z"/>
<path d="M2344 902 c87 -114 207 -211 419 -339 103 -62 224 -119 234 -110 2 3
-22 19 -54 37 -32 18 -101 63 -153 99 -52 37 -144 101 -205 142 -60 41 -146
109 -191 151 -45 43 -84 78 -88 78 -4 0 13 -26 38 -58z"/>
</g>
</svg>